M48
; DRILL file {KiCad 7.0.10} date Mon Jan  8 20:24:00 2024
; FORMAT={-:-/ absolute / inch / decimal}
; #@! TF.CreationDate,2024-01-08T20:24:00-08:00
; #@! TF.GenerationSoftware,Kicad,Pcbnew,7.0.10
; #@! TF.FileFunction,Plated,1,2,PTH
FMAT,2
INCH
; #@! TA.AperFunction,Plated,PTH,ComponentDrill
T1C0.0315
; #@! TA.AperFunction,Plated,PTH,ComponentDrill
T2C0.0350
; #@! TA.AperFunction,Plated,PTH,ComponentDrill
T3C0.0354
; #@! TA.AperFunction,Plated,PTH,ComponentDrill
T4C0.0394
; #@! TA.AperFunction,Plated,PTH,ComponentDrill
T5C0.0433
; #@! TA.AperFunction,Plated,PTH,ComponentDrill
T6C0.0550
%
G90
G05
T1
X3.5703Y-3.8228
X3.649Y-3.8228
X4.2159Y-3.5406
X4.2947Y-3.5406
X5.3043Y-2.3705
X5.3043Y-2.4705
X5.3043Y-2.5705
X5.3043Y-2.6705
X5.3043Y-2.7705
X5.3043Y-2.8705
X5.3043Y-2.9705
X5.3043Y-3.0705
X5.3043Y-3.1705
X5.3043Y-3.2705
X5.3043Y-3.3705
X5.3043Y-3.4705
X5.3043Y-3.5705
X5.3043Y-3.6705
X5.3043Y-3.7705
X5.3043Y-3.8705
X6.1043Y-2.7705
X6.1043Y-2.8705
X6.1043Y-2.9705
X6.1043Y-3.0705
X6.1043Y-3.1705
X6.1043Y-3.2705
X6.1043Y-3.3705
X6.1043Y-3.4705
X6.1043Y-3.5705
X6.1043Y-3.6705
X6.1043Y-3.7705
X6.1043Y-3.8705
X6.378Y-3.0709
X6.378Y-3.4252
X6.4567Y-3.0709
X6.4567Y-3.4252
T2
X3.3008Y-2.8528
X3.3008Y-2.9528
X3.3008Y-3.0528
X3.6008Y-3.3528
X3.7008Y-3.3528
X3.8008Y-3.3528
X7.3165Y-2.8528
X7.3165Y-2.9528
X7.3165Y-3.0528
X7.6165Y-3.3528
X7.7165Y-3.3528
X7.8165Y-3.3528
T3
X3.5758Y-2.4528
X3.5758Y-2.6528
X3.8258Y-2.4528
X3.8258Y-2.6528
X7.5915Y-2.4528
X7.5915Y-2.6528
X7.8415Y-2.4528
X7.8415Y-2.6528
T4
X3.2677Y-1.5717
X3.2677Y-1.6717
X3.2677Y-1.7717
X4.6033Y-3.7008
X4.7033Y-3.7008
X4.8Y-3.4252
X4.8033Y-3.7008
X4.8219Y-2.2244
X4.9Y-3.4252
X4.9033Y-3.7008
X4.9219Y-2.2244
X5.0Y-3.4252
X5.0033Y-3.7008
X5.0219Y-2.2244
X6.3567Y-2.2441
X6.4567Y-2.2441
X6.5567Y-2.2441
X7.3622Y-1.5717
X7.3622Y-1.6717
X7.3622Y-1.7717
T5
X3.4646Y-1.5551
X3.4646Y-1.811
X3.6417Y-1.5551
X3.6417Y-1.811
X3.8386Y-1.5551
X3.8386Y-1.811
X4.0157Y-1.5551
X4.0157Y-1.811
X4.7185Y-4.524
X4.7185Y-4.7012
X4.9744Y-4.524
X4.9744Y-4.7012
X5.3028Y-4.524
X5.3028Y-4.7012
X5.5587Y-4.524
X5.5587Y-4.7012
X6.3173Y-4.1346
X6.3173Y-4.3118
X6.5732Y-4.1346
X6.5732Y-4.3118
X6.711Y-4.5272
X6.711Y-4.7043
X6.7114Y-3.7413
X6.7114Y-3.9185
X6.9669Y-4.5272
X6.9669Y-4.7043
X6.9673Y-3.7413
X6.9673Y-3.9185
X7.1043Y-4.1354
X7.1043Y-4.3126
X7.3602Y-4.1354
X7.3602Y-4.3126
X7.5492Y-1.5256
X7.5492Y-1.7815
X7.7264Y-1.5256
X7.7264Y-1.7815
X7.9429Y-1.5256
X7.9429Y-1.7815
X8.1201Y-1.5256
X8.1201Y-1.7815
T6
X3.4008Y-2.6903
X3.4008Y-3.2153
X4.0008Y-2.6903
X4.0008Y-3.2153
X7.4165Y-2.6903
X7.4165Y-3.2153
X8.0165Y-2.6903
X8.0165Y-3.2153
M30
