%TF.GenerationSoftware,KiCad,Pcbnew,7.0.10*%
%TF.CreationDate,2024-01-08T20:24:17-08:00*%
%TF.ProjectId,controller board v2,636f6e74-726f-46c6-9c65-7220626f6172,rev?*%
%TF.SameCoordinates,Original*%
%TF.FileFunction,Drillmap*%
%TF.FilePolarity,Positive*%
%FSLAX45Y45*%
G04 Gerber Fmt 4.5, Leading zero omitted, Abs format (unit mm)*
G04 Created by KiCad (PCBNEW 7.0.10) date 2024-01-08 20:24:17*
%MOMM*%
%LPD*%
G01*
G04 APERTURE LIST*
%ADD10C,0.100000*%
%ADD11C,0.200000*%
G04 APERTURE END LIST*
D10*
X20900000Y-5350000D02*
X20900000Y-5250000D01*
X8000000Y-3250000D02*
X10600000Y-3250000D01*
X10500000Y-5350000D02*
X8150000Y-5350000D01*
X8000000Y-5250000D02*
X8000000Y-3250000D01*
X18500000Y-5350000D02*
X18500000Y-5250000D01*
X21000000Y-5250000D02*
X21000000Y-3250000D01*
X20650000Y-11700000D02*
G75*
G03*
X20350000Y-11700000I-150000J0D01*
G01*
X20350000Y-11700000D02*
G75*
G03*
X20650000Y-11700000I150000J0D01*
G01*
X10500000Y-5350000D02*
X10500000Y-5250000D01*
X10600000Y-3250000D02*
X10600000Y-5250000D01*
X8650000Y-11700000D02*
G75*
G03*
X8350000Y-11700000I-150000J0D01*
G01*
X8350000Y-11700000D02*
G75*
G03*
X8650000Y-11700000I150000J0D01*
G01*
X20900000Y-5350000D02*
X18500000Y-5350000D01*
X18500000Y-5250000D02*
X20900000Y-5250000D01*
X8650000Y-5700000D02*
G75*
G03*
X8350000Y-5700000I-150000J0D01*
G01*
X8350000Y-5700000D02*
G75*
G03*
X8650000Y-5700000I150000J0D01*
G01*
X10500000Y-5250000D02*
X8150000Y-5250000D01*
X10600000Y-5350000D02*
X18400000Y-5350000D01*
X20650000Y-5700000D02*
G75*
G03*
X20350000Y-5700000I-150000J0D01*
G01*
X20350000Y-5700000D02*
G75*
G03*
X20650000Y-5700000I150000J0D01*
G01*
X11224621Y-10800000D02*
G75*
G03*
X9575379Y-10800000I-824621J0D01*
G01*
X9575379Y-10800000D02*
G75*
G03*
X11224621Y-10800000I824621J0D01*
G01*
X21000000Y-3250000D02*
X18400000Y-3250000D01*
X18400000Y-5250000D02*
X18400000Y-5350000D01*
X18400000Y-5250000D02*
X18400000Y-3250000D01*
X21000000Y-12250000D02*
X8000000Y-12250000D01*
X8150000Y-5250000D02*
X8150000Y-5350000D01*
X8000000Y-12250000D02*
X8000000Y-5250000D01*
X10600000Y-5350000D02*
X10600000Y-5250000D01*
X21000000Y-5250000D02*
X21000000Y-12250000D01*
D11*
X8255777Y-12566484D02*
X8255777Y-12366484D01*
X8255777Y-12366484D02*
X8303396Y-12366484D01*
X8303396Y-12366484D02*
X8331967Y-12376008D01*
X8331967Y-12376008D02*
X8351015Y-12395055D01*
X8351015Y-12395055D02*
X8360539Y-12414103D01*
X8360539Y-12414103D02*
X8370062Y-12452198D01*
X8370062Y-12452198D02*
X8370062Y-12480769D01*
X8370062Y-12480769D02*
X8360539Y-12518865D01*
X8360539Y-12518865D02*
X8351015Y-12537912D01*
X8351015Y-12537912D02*
X8331967Y-12556960D01*
X8331967Y-12556960D02*
X8303396Y-12566484D01*
X8303396Y-12566484D02*
X8255777Y-12566484D01*
X8455777Y-12566484D02*
X8455777Y-12433150D01*
X8455777Y-12471246D02*
X8465301Y-12452198D01*
X8465301Y-12452198D02*
X8474824Y-12442674D01*
X8474824Y-12442674D02*
X8493872Y-12433150D01*
X8493872Y-12433150D02*
X8512920Y-12433150D01*
X8579586Y-12566484D02*
X8579586Y-12433150D01*
X8579586Y-12366484D02*
X8570063Y-12376008D01*
X8570063Y-12376008D02*
X8579586Y-12385531D01*
X8579586Y-12385531D02*
X8589110Y-12376008D01*
X8589110Y-12376008D02*
X8579586Y-12366484D01*
X8579586Y-12366484D02*
X8579586Y-12385531D01*
X8703396Y-12566484D02*
X8684348Y-12556960D01*
X8684348Y-12556960D02*
X8674824Y-12537912D01*
X8674824Y-12537912D02*
X8674824Y-12366484D01*
X8808158Y-12566484D02*
X8789110Y-12556960D01*
X8789110Y-12556960D02*
X8779586Y-12537912D01*
X8779586Y-12537912D02*
X8779586Y-12366484D01*
X9036729Y-12566484D02*
X9036729Y-12366484D01*
X9036729Y-12366484D02*
X9103396Y-12509341D01*
X9103396Y-12509341D02*
X9170063Y-12366484D01*
X9170063Y-12366484D02*
X9170063Y-12566484D01*
X9351015Y-12566484D02*
X9351015Y-12461722D01*
X9351015Y-12461722D02*
X9341491Y-12442674D01*
X9341491Y-12442674D02*
X9322444Y-12433150D01*
X9322444Y-12433150D02*
X9284348Y-12433150D01*
X9284348Y-12433150D02*
X9265301Y-12442674D01*
X9351015Y-12556960D02*
X9331967Y-12566484D01*
X9331967Y-12566484D02*
X9284348Y-12566484D01*
X9284348Y-12566484D02*
X9265301Y-12556960D01*
X9265301Y-12556960D02*
X9255777Y-12537912D01*
X9255777Y-12537912D02*
X9255777Y-12518865D01*
X9255777Y-12518865D02*
X9265301Y-12499817D01*
X9265301Y-12499817D02*
X9284348Y-12490293D01*
X9284348Y-12490293D02*
X9331967Y-12490293D01*
X9331967Y-12490293D02*
X9351015Y-12480769D01*
X9446253Y-12433150D02*
X9446253Y-12633150D01*
X9446253Y-12442674D02*
X9465301Y-12433150D01*
X9465301Y-12433150D02*
X9503396Y-12433150D01*
X9503396Y-12433150D02*
X9522444Y-12442674D01*
X9522444Y-12442674D02*
X9531967Y-12452198D01*
X9531967Y-12452198D02*
X9541491Y-12471246D01*
X9541491Y-12471246D02*
X9541491Y-12528388D01*
X9541491Y-12528388D02*
X9531967Y-12547436D01*
X9531967Y-12547436D02*
X9522444Y-12556960D01*
X9522444Y-12556960D02*
X9503396Y-12566484D01*
X9503396Y-12566484D02*
X9465301Y-12566484D01*
X9465301Y-12566484D02*
X9446253Y-12556960D01*
X9627205Y-12547436D02*
X9636729Y-12556960D01*
X9636729Y-12556960D02*
X9627205Y-12566484D01*
X9627205Y-12566484D02*
X9617682Y-12556960D01*
X9617682Y-12556960D02*
X9627205Y-12547436D01*
X9627205Y-12547436D02*
X9627205Y-12566484D01*
X9627205Y-12442674D02*
X9636729Y-12452198D01*
X9636729Y-12452198D02*
X9627205Y-12461722D01*
X9627205Y-12461722D02*
X9617682Y-12452198D01*
X9617682Y-12452198D02*
X9627205Y-12442674D01*
X9627205Y-12442674D02*
X9627205Y-12461722D01*
M02*
